<?xml version="1.0" encoding="utf-8"?>
<!-- Generator: Adobe Illustrator 19.0.0, SVG Export Plug-In . SVG Version: 6.00 Build 0)  -->
<svg version="1.1" id="Calque_1" xmlns="http://www.w3.org/2000/svg" xmlns:xlink="http://www.w3.org/1999/xlink" x="0px" y="0px"
	 viewBox="-247 371.7 99.2 99.2" style="enable-background:new -247 371.7 99.2 99.2;" xml:space="preserve">
<style type="text/css">
	.st0{fill-rule:evenodd;clip-rule:evenodd;fill:#FFFFFF;}
</style>
<path class="st0" d="M-187.9,449.7c-2.3,0.1-4.9-0.3-7.9-1.3c-26.4-8.3-28.9-48.4-20.9-56.1c1.8,0.6,3.7,1.4,5.5,2.6
	c4.3,2.9,9.7,8.9,10.2,20.6C-200.2,432.2-195.4,444.3-187.9,449.7z"/>
<path class="st0" d="M-183.1,448.6c-8.1-3.4-13.4-15.5-14.3-33.3c-0.6-13-6.7-19.7-11.6-23c-1-0.7-2-1.2-3.1-1.7
	C-183.5,386.6-164.5,440.5-183.1,448.6z"/>
</svg>
