<?xml version="1.0" encoding="utf-8"?>
<!-- Generator: Adobe Illustrator 19.0.0, SVG Export Plug-In . SVG Version: 6.00 Build 0)  -->
<svg version="1.1" id="Calque_1" xmlns="http://www.w3.org/2000/svg" xmlns:xlink="http://www.w3.org/1999/xlink" x="0px" y="0px"
	 viewBox="-247 371.7 99.2 99.2" style="enable-background:new -247 371.7 99.2 99.2;" xml:space="preserve">
<style type="text/css">
	.st0{fill-rule:evenodd;clip-rule:evenodd;fill:#FFFFFF;}
</style>
<g id="XMLID_2_">
	<path id="XMLID_5_" class="st0" d="M-179.4,394.3c2.3-0.2,6.1,0,8.1,0.7c1.6,0.5,2.9,1.9,3.6,3.2c0.6,1,0.8,2.3,1.3,3.4
		c0.5,1.1,0.9,2.2,1.4,3.3c1,2.2,1.9,4.3,2.7,6.6c1.3,3.4,2.7,6.5,4.1,9.9c0.7,1.6,1.9,4.5-0.9,4.4c-0.8,0-1.5-0.2-2.1-0.3
		c-1.7-0.3-3.1-0.2-4.6-0.2c-3.1,0-6,0.5-8.5,1.1c-7.9,1.8-14,5.1-21,7.7c-5.7,2.1-11.7,4.3-19.8,3.9c-2-0.1-4.4-0.2-5.9-0.9
		c-0.7-0.3-1.8-1.2-2.2-1.9c-0.7-0.9-1.2-2.2-1.6-3.4c-0.4-1.2-1-2.4-1.4-3.6c-0.9-2.3-2.1-4.7-2.9-7.1c-0.8-2.1-1.9-4.6-2.9-7.1
		c-0.5-1.1-0.8-2.2-1.4-3.6c-0.5-1-1.3-3-0.4-3.7c0.5-0.5,2.6-0.2,3.7-0.1c3.8,0.6,8.3,0.1,11.7-0.6c3.5-0.7,6.7-1.8,9.8-2.9
		c5.1-1.9,10-4.1,15.2-6.1c2.1-0.8,4.3-1.4,6.6-1.9c1.2-0.2,2.3-0.5,3.6-0.7C-182.1,394.6-180.8,394.5-179.4,394.3z M-200.7,405.1
		c-1.9,0.9-3.3,2.1-4.4,3.5c-1.5,1.9-2.9,4.6-2.6,8.2c0.2,2.3,0.9,4.3,2,5.9c1.4,2,4.1,4.2,6.4,4.9c6.7,2.2,12.5-1.8,14.5-6.8
		c1-2.5,1.2-6.1,0-9.1c-0.6-1.5-1.6-2.9-2.7-4c-2.1-2.1-5.1-3.7-9.1-3.6C-198.1,404.2-199.6,404.5-200.7,405.1z"/>
	<path id="XMLID_4_" class="st0" d="M-195.3,406.8c0.6,0.7,0.9,1.7,1.1,2.7c-1.9,0.9-3.6,1.9-4.2,3.9c1.1,0,1.8-0.9,3.2-0.9
		c0.5,0.4,0.9,1.3,0.6,2.1c-1.2,0.7-3,0.9-4.2,1.7c0,0.5,0.2,0.9,0.4,1.1c0.9-0.3,1.9-0.6,2.9-0.9c0.4-0.1,0.9-0.6,1.4-0.5
		c0.6,0.1,1.3,1.5,0.8,2.2c-0.2,0.3-1.1,0.5-1.5,0.6c-0.6,0.2-1,0.3-1.5,0.6c1.2,1.1,4.1,0.9,5.8,0.4c0.5,0.7,0.9,1.8,1,2.7
		c-3.4,1.7-8.9,0.6-10.7-1.6c-0.8,0.1-2.9,1.5-3.7,1.1c-0.5-0.2-0.8-1.5-0.5-2.1c0.9-0.4,1.8-0.7,2.6-1.1c0.1-0.3-0.2-0.8-0.3-1.2
		c-0.7,0.1-1.1,0.4-1.9,0.7c-0.3,0.1-0.7,0.3-0.9,0.2c-0.8-0.1-1.3-1.9-0.6-2.4c0.2-0.2,1.3-0.5,1.6-0.6c0.6-0.2,1.2-0.3,1.6-0.6
		C-201.6,410.6-198.9,408.2-195.3,406.8z"/>
	<path id="XMLID_3_" class="st0" d="M-234.1,417.5c0.3,0,0.7-0.1,1,0.1c0.4,0.2,0.8,1.6,1.2,2.4c1.2,2.5,1.9,5.1,3.1,7.6
		c1.1,2.4,2,5.1,3.1,7.6c0.5,1,0.8,2.1,1.3,2.9c0.7,1.1,2.1,2.3,3.4,2.7c1.1,0.3,2.5,0.3,3.7,0.4c3.9,0.5,7.9-0.1,11.2-0.8
		c4.5-0.9,8.8-2.5,12.4-4.1c1.9-0.8,3.9-1.5,5.9-2.4c2-0.8,3.9-1.7,5.9-2.3c5-1.6,10.4-3.3,17.5-3c0.5,0,1.1,0.2,1.7,0.2
		c0.7,0.1,1.4,0,1.7,0.2c0.4,0.2,0.6,1,0.9,1.5c0.6,1.2,0.8,2.1,1.3,3.3c0.5,1,0.7,2.5-0.5,2.9c-1,0.3-2.9-0.2-4.1-0.3
		c-7.3-0.5-13.8,1-19.2,3.1c-2.1,0.8-4.3,1.6-6.5,2.5c-8.1,3.4-16.8,7.7-29,6.9c-3.3-0.2-5.4-1.1-6.8-3.4c-0.6-1-1-2.2-1.4-3.3
		c-0.5-1.1-0.9-2.3-1.4-3.4c-2.1-5-4.2-9.9-6.2-15.2c-0.4-1.1-0.9-2.1-1.4-3.3c-0.3-0.6-0.5-1.4-0.3-1.9
		C-235.3,418-234.7,417.6-234.1,417.5z"/>
</g>
</svg>
