<?xml version="1.0" encoding="utf-8"?>
<!-- Generator: Adobe Illustrator 19.0.0, SVG Export Plug-In . SVG Version: 6.00 Build 0)  -->
<svg version="1.1" id="Calque_1" xmlns="http://www.w3.org/2000/svg" xmlns:xlink="http://www.w3.org/1999/xlink" x="0px" y="0px"
	 viewBox="-247 371.7 99.2 99.2" style="enable-background:new -247 371.7 99.2 99.2;" xml:space="preserve">
<style type="text/css">
	.st0{fill:#FFFFFF;}
</style>
<path id="XMLID_2_" class="st0" d="M-179.9,413c-0.2-0.3-0.4-0.4-0.7-0.4h-16.7l4.4-26.8c0.1-0.4-0.2-0.8-0.6-1
	c-0.4-0.1-0.8,0.1-1,0.5l-15.4,34.1c-0.1,0.3-0.1,0.6,0.1,0.8c0.2,0.2,0.4,0.4,0.7,0.4h14.1l-14.9,38.3c-0.2,0.4,0,0.9,0.4,1.1
	c0.1,0.1,0.3,0.1,0.4,0.1c0.3,0,0.6-0.1,0.7-0.4l28.5-45.7C-179.8,413.6-179.8,413.3-179.9,413z"/>
</svg>
