<?xml version="1.0" encoding="utf-8"?>
<!-- Generator: Adobe Illustrator 19.0.0, SVG Export Plug-In . SVG Version: 6.00 Build 0)  -->
<svg version="1.1" id="Calque_1" xmlns="http://www.w3.org/2000/svg" xmlns:xlink="http://www.w3.org/1999/xlink" x="0px" y="0px"
	 viewBox="-247 371.7 99.2 99.2" style="enable-background:new -247 371.7 99.2 99.2;" xml:space="preserve">
<style type="text/css">
	.st0{fill:#FFFFFF;}
</style>
<path id="XMLID_2_" class="st0" d="M-172.4,402.3l-21.3-5.8l1-5.1c0.1-0.3-0.1-0.6-0.4-0.6l-2.8-0.9c-0.2-0.1-0.3,0-0.5,0.1
	l-2.9,1.8c-0.2,0.1-0.3,0.4-0.2,0.7l1.7,4.3l-11.2,3.7l-11.4-1.7c-0.2,0-0.4,0.1-0.5,0.2l-5.7,7.7c-0.1,0.2-0.1,0.4-0.1,0.6
	l9.2,19.1c0.1,0.2,0.3,0.3,0.5,0.3l5.9,0.6c0.3,0,0.5-0.1,0.6-0.4l0.6-1.9c0.1-0.3-0.1-0.6-0.3-0.7l-5-2.1l-5.2-14.1l1.9-2.3l4,1.2
	c0.1,0,0.1,0,0.2,0h2.6l3.5,16.5c0,0.1,0.1,0.2,0.2,0.3l1.2,1l0.3,4.1l-0.7,2.1c0,0,0,0.1,0,0.1l-2.4,18.6c0,0.2,0.1,0.4,0.2,0.5
	l7.2,5c0.1,0.1,0.2,0.1,0.3,0.1h13.8c0.1,0,0.2,0,0.3-0.1l6.9-4.5c0.2-0.1,0.3-0.3,0.3-0.5l-2.5-19c0,0,0,0,0-0.1l-0.6-2.6v-4.3
	l0.8-0.8c0.1-0.1,0.2-0.2,0.2-0.3l1.5-7.9l6.7-10.9l2.4-0.9c0.2-0.1,0.4-0.3,0.4-0.5C-172,402.6-172.2,402.4-172.4,402.3z"/>
</svg>
