<?xml version="1.0" encoding="utf-8"?>
<!-- Generator: Adobe Illustrator 19.0.0, SVG Export Plug-In . SVG Version: 6.00 Build 0)  -->
<svg version="1.1" id="Calque_1" xmlns="http://www.w3.org/2000/svg" xmlns:xlink="http://www.w3.org/1999/xlink" x="0px" y="0px"
	 viewBox="-247 371.7 99.2 99.2" style="enable-background:new -247 371.7 99.2 99.2;" xml:space="preserve">
<style type="text/css">
	.st0{fill-rule:evenodd;clip-rule:evenodd;fill:#FFFFFF;}
</style>
<path id="XMLID_2_" class="st0" d="M-171.7,432.5c-1.1-2.4-2.7-4.9-3.2-7.2c-1.4-6.7-1.2-11.3-2.5-18.9c5.4-1.9,10.6-5.3,13.4-10.2
	c1-1.7,4.6-10.1,1-11.2c-4.4-1.3-4.6,7.1-6.5,9.7c-2.1,3-4,3.4-6.1,5c-0.4,0-0.8-0.1-1.2-0.1c-1.4-0.7-2.8-1.7-4.3-1.7
	c0.9-11.3-18.3-10.6-15.1,2.2c-0.4-0.7-1.6-0.5-2-1.2c1.7-11.6-15.5-12.1-15.5-0.7c0-0.1-0.1-0.2-0.2-0.2c-2.2,0-3.6,2-4.7,2.2
	c-3.5-2.5-5.8-3.9-7.7-7.7c-1-2-1.1-5.6-2.2-6.7c-1.4-1.3-4.3-0.7-4.7,1.5c-0.4,1.8,1,5.4,1.7,6.9c2.9,6.5,8.5,10,14.4,12.4
	c-1.7,7.7-1,13.4-3,20.1c-0.6,2.1-2,4.6-3,6.7c-2.2,4.7-4.4,8.8-6.5,13.4c-1.1,2.4-2.8,5.5-2.5,7.4c0.4,2.7,4.5,4.7,7.2,2.5
	c1.2-1,2.3-4.5,3.2-6.5c2.3-4.9,3.9-8.2,6.2-13.2c1-2.2,1.8-7.4,5-6.2v13.4c0,8.5-1.7,17.9,6,16.1c0.9-0.8,1.9-1.6,2.5-2.7
	c0.1-10.8-0.5-23.1,0.7-31.8c0.8-5.9,1-12.4,2.2-17.1c0.3-1.2,1.5-2.1,1-3.2c3.3,2.5,2.7,7.1,3.5,12.7c0.5,3.6,1.6,7.7,2,11.7
	c0.4,4.2,0,9.3,0,14.4c0,4.9-1,11.2,0.2,14.1c1.5,3.6,7.8,2.3,8.2-1v-13.9c0-3-1-12.7,1.2-12.9c1.1-0.1,1.2,1.1,2,2.7
	c2.8,5.9,5.4,11.3,7.9,16.6c1.7,3.6,2.9,9.3,7.9,7.4c5-1.9,1.1-7.6-0.5-10.9C-167.9,441.5-169.4,437.3-171.7,432.5z"/>
</svg>
